<?xml version="1.0"?>
<svg xmlns="http://www.w3.org/2000/svg" xmlns:xlink="http://www.w3.org/1999/xlink" xmlns:svgjs="http://svgjs.com/svgjs" version="1.1" width="64" height="69" x="0" y="0" viewBox="0 0 24 24" style="enable-background:new 0 0 512 512" xml:space="preserve"><g><path xmlns="http://www.w3.org/2000/svg" d="M12,0A12,12,0,1,0,24,12,12.013,12.013,0,0,0,12,0Zm0,22A10,10,0,1,1,22,12,10.011,10.011,0,0,1,12,22Z" fill="#000e40" data-original="#000000"/><path xmlns="http://www.w3.org/2000/svg" d="M12,6a1,1,0,0,0-1,1v4.325L7.629,13.437a1,1,0,0,0,1.062,1.7l3.84-2.4A1,1,0,0,0,13,11.879V7A1,1,0,0,0,12,6Z" fill="#000e40" data-original="#000000"/></g></svg>
