<svg width="68" height="33" viewBox="0 0 68 33" fill="none" xmlns="http://www.w3.org/2000/svg">
<g clip-path="url(#clip0)">
<path d="M63.216 12.3672H63.577C63.8478 12.3672 63.9983 12.4906 63.9983 12.7065C63.9983 12.9532 63.7877 13.0457 63.6071 13.0457H63.216V12.3672ZM62.4939 11.8121V14.8037H63.216V13.6009H63.4266C63.8177 13.6009 63.9381 14.1869 64.239 14.8037H65.0514C64.6301 13.9401 64.5399 13.57 64.239 13.4158C64.57 13.2616 64.7505 13.0149 64.7505 12.6756C64.7505 12.2439 64.3894 11.8121 63.7877 11.8121H62.4939ZM60.6885 13.3233C60.6885 13.8784 60.3275 14.2485 59.7558 14.2485C59.2142 14.2485 58.8231 13.8784 58.8231 13.3233C58.8231 12.7682 59.1841 12.3981 59.7558 12.3981C60.3275 12.3981 60.6885 12.7682 60.6885 13.3233ZM61.4408 13.3233C61.4408 12.614 60.8691 11.7812 59.7859 11.7812C58.7027 11.7812 58.1009 12.5831 58.1009 13.3233C58.1009 14.0943 58.7027 14.8654 59.7859 14.8654C60.839 14.8345 61.4408 14.0943 61.4408 13.3233ZM55.6939 12.3672H55.9646C56.3558 12.3672 56.5062 12.4598 56.5062 12.7065C56.5062 12.9224 56.3859 13.0457 56.0549 13.0457H55.7239V12.3672H55.6939ZM54.9717 11.8121V14.8037H55.6939V13.6009H56.2655C56.9275 13.6009 57.2284 13.1074 57.2284 12.7065C57.2284 12.3055 56.9275 11.8121 56.2655 11.8121H54.9717ZM51.5416 13.3233C51.5416 13.8784 51.1806 14.2485 50.6089 14.2485C50.0673 14.2485 49.6762 13.8784 49.6762 13.3233C49.6762 12.7682 50.0372 12.3981 50.6089 12.3981C51.1505 12.3981 51.5416 12.7682 51.5416 13.3233ZM52.2638 13.3233C52.2638 12.614 51.6921 11.7812 50.6089 11.7812C49.4956 11.7812 48.9239 12.5831 48.9239 13.3233C48.9239 14.0943 49.5257 14.8654 50.6089 14.8654C51.662 14.8345 52.2638 14.0943 52.2638 13.3233ZM46.0655 12.3672H46.5469C47.239 12.3672 47.5098 12.799 47.5098 13.3233C47.5098 13.7551 47.2992 14.2794 46.5469 14.2794H46.0655V12.3672ZM45.3434 11.8121V14.8037H46.5469C47.7204 14.8037 48.2319 14.1869 48.2319 13.3233C48.2319 12.4906 47.6903 11.8121 46.6071 11.8121H45.3434ZM43.0567 13.6934H42.154L42.5753 12.5214L43.0567 13.6934ZM42.9965 11.8121H42.154L40.9806 14.8037H41.7629L41.9735 14.2177H43.2673L43.508 14.8037H44.2903L42.9965 11.8121ZM38.5133 12.3672H38.9947C39.6868 12.3672 39.9576 12.799 39.9576 13.3233C39.9576 13.7551 39.7469 14.2794 38.9947 14.2794H38.5133V12.3672ZM37.7912 11.8121V14.8037H38.9947C40.1682 14.8037 40.6797 14.1869 40.6797 13.3233C40.6797 12.4906 40.1381 11.8121 39.0549 11.8121H37.7912ZM36.6177 11.8121H35.8956V14.8037H36.6177V11.8121ZM34.9629 14.2485H33.4584V11.8121H32.7363V14.8037H34.9629V14.2485ZM30.8708 13.6934H29.9682L30.3894 12.5214L30.8708 13.6934ZM30.8107 11.8121H29.9682L28.7947 14.8037H29.577L29.7876 14.2177H31.0815L31.3222 14.8037H32.1045L30.8107 11.8121ZM28.6142 11.8121H27.8319L27.1098 13.5084L26.3275 11.8121H25.5452L26.9593 14.8345H27.2903L28.6142 11.8121Z" fill="white"/>
<path d="M59.5452 2.96075C59.5452 1.69626 60.478 0.771028 61.7116 0.771028C62.9753 0.771028 63.8779 1.69626 63.8779 2.96075C63.8779 4.22523 62.9452 5.15047 61.7116 5.15047C60.478 5.11963 59.5452 4.19439 59.5452 2.96075ZM58.7027 2.96075C58.7027 4.5028 59.8461 5.89065 61.6815 5.89065C63.5771 5.89065 64.6903 4.5028 64.6903 2.96075C64.6903 1.35701 63.5169 0.0308411 61.6815 0.0308411C59.9063 0.0308411 58.7027 1.35701 58.7027 2.96075ZM53.708 0.801869H54.2195C55.0018 0.801869 55.3027 1.14112 55.3027 1.66542C55.3027 2.12804 55.062 2.59065 54.2195 2.59065H53.708V0.801869ZM52.9257 0.0925234V5.79813H53.7381V3.33084H54.0691C54.4903 3.33084 54.8213 3.45421 55.5434 4.62617L56.2656 5.79813H57.2284C56.8372 5.24299 56.7169 5.05794 56.4762 4.65701C56.0549 3.94766 55.7541 3.42336 55.2426 3.08411C55.8443 2.83738 56.1753 2.34393 56.1753 1.69626C56.1753 0.709346 55.4833 0.0925234 54.3399 0.0925234H52.9257ZM50.1877 0.0925234H49.3753V3.42336C49.3753 3.94766 49.3151 4.37944 49.0142 4.65701C48.7735 4.90374 48.3222 5.11963 47.6903 5.11963C47.2089 5.11963 46.8178 4.96542 46.4868 4.62617C46.2461 4.37944 46.1558 4.10187 46.1558 3.45421V0.0925234H45.3434V3.63925C45.3434 5.18131 46.4868 5.89065 47.6602 5.89065C49.3151 5.89065 50.1275 4.96542 50.1275 3.57757L50.1877 0.0925234ZM42.7257 2.99159H40.8603V3.73178H41.9434V4.90374C41.5523 5.0271 41.1611 5.11963 40.7399 5.11963C39.416 5.11963 38.4833 4.22523 38.4833 2.96075C38.4833 1.7271 39.416 0.771028 40.6195 0.771028C41.2815 0.771028 41.9735 0.956075 42.6355 1.32617V0.493458C41.7629 0.123364 41.3116 0 40.6496 0C38.9346 0 37.6709 1.29533 37.6709 2.96075C37.6709 4.62617 38.9346 5.85981 40.6496 5.85981C41.4319 5.85981 42.0337 5.73645 42.7859 5.3972L42.7257 2.99159ZM35.9558 0.0925234H32.7965V5.79813H36.0461V5.05794H33.6089V3.26916H35.8956V2.55981H33.6089V0.83271H35.9558V0.0925234ZM30.239 0.431776C29.8479 0.154206 29.4266 0.0308411 29.0054 0.0308411C27.9824 0.0308411 27.3204 0.616822 27.3204 1.54206C27.3204 3.11495 29.7275 3.23832 29.7275 4.41028C29.7275 4.71869 29.4567 5.11963 28.8249 5.11963C28.2833 5.11963 27.7718 4.84206 27.3505 4.28692V5.33551C27.8018 5.70561 28.3133 5.85981 28.9151 5.85981C29.8178 5.85981 30.4797 5.21215 30.4797 4.31776C30.4797 2.49813 28.0726 2.52897 28.0726 1.41869C28.0726 1.01776 28.4337 0.740187 28.9452 0.740187C29.3364 0.740187 29.7877 0.863551 30.239 1.32617V0.431776ZM21.3027 0.0925234H18.1434V5.79813H21.393V5.05794H18.9558V3.26916H21.2426V2.55981H18.9558V0.83271H21.3328V0.0925234H21.3027ZM16.0974 0.0925234H11.4638V0.83271H13.3895V5.79813H14.2018V0.83271H16.1275L16.0974 0.0925234ZM9.0868 0.0925234H8.27441V5.79813H9.0868V0.0925234ZM5.89742 0.431776C5.50627 0.154206 5.08503 0.0308411 4.66379 0.0308411C3.61069 0.0308411 2.94875 0.616822 2.94875 1.54206C2.94875 3.11495 5.35582 3.23832 5.35582 4.41028C5.35582 4.71869 5.05494 5.11963 4.45317 5.11963C3.91158 5.11963 3.40007 4.84206 2.97883 4.28692V5.33551C3.43016 5.70561 3.94167 5.85981 4.54344 5.85981C5.44609 5.85981 6.10804 5.21215 6.10804 4.31776C6.10804 2.49813 3.70096 2.52897 3.70096 1.41869C3.70096 1.01776 4.06202 0.740187 4.57352 0.740187C4.93459 0.740187 5.416 0.863551 5.86733 1.32617V0.431776H5.89742ZM2.2868 14.8037C2.25671 14.7729 2.22662 14.7421 2.19653 14.7421L2.2868 14.8037Z" fill="white"/>
<path d="M6.34869 24.1795C4.81417 26.6467 4.12214 28.8673 4.18232 29.0215C4.24249 28.9907 4.42302 28.8673 4.42302 28.8673C7.3717 26.1841 9.29736 23.2234 9.9894 20.571C8.9363 21.2187 7.3717 22.5449 6.34869 24.1795Z" fill="white"/>
<path d="M16.2478 22.7606C16.3079 22.8223 16.3681 22.8531 16.3982 22.884C16.3982 22.8531 16.3982 22.8223 16.3982 22.7915C16.3982 22.6989 16.3982 22.6064 16.3681 22.483V22.4522V22.4214C16.0371 20.8176 15.4053 19.8307 14.4124 19.4915C14.6832 20.7251 15.3451 21.9587 16.2478 22.7606Z" fill="white"/>
<path d="M21.5735 11.2877C21.4531 11.0102 20.9416 10.1466 19.6478 10.27H19.6177H19.5876C17.8124 10.4859 16.1576 11.2877 14.8337 12.4597C14.6832 12.4288 14.5328 12.398 14.3823 12.3363C14.623 11.6887 14.7434 11.0102 14.7434 10.3008C14.7434 9.68398 14.6531 9.06716 14.4726 8.45034V8.4195V8.38866C14.0814 7.24754 13.239 6.87744 12.5469 6.87744C11.6443 6.90828 10.8921 7.61763 10.6213 8.72791V8.75875C10.4106 9.34473 10.2301 10.1466 10.2301 11.1027C10.2301 11.5961 10.2903 12.0896 10.4407 12.583C10.2602 12.7373 10.0496 12.8606 9.83897 12.984C8.30445 11.3494 6.19826 10.5167 3.85136 10.6709H3.82127C2.79826 10.6709 1.92569 11.226 1.59472 12.1204C1.50445 12.398 1.47437 12.6756 1.47437 12.9531C1.47437 13.6316 1.77525 14.3102 2.28675 14.8036C4.0018 16.5924 6.31861 17.2709 8.63543 16.87C8.75578 17.1475 8.84605 17.4251 8.93631 17.7335C8.99649 18.0728 9.05667 18.412 9.05667 18.7821C5.95755 20.6017 3.43012 23.9326 2.10622 28.2195C1.95578 28.6821 1.8956 29.083 1.8956 29.4531C1.8956 30.5943 2.52746 31.1186 2.85844 31.3036C3.82127 31.8896 4.93454 31.4578 5.62658 30.7793C5.68676 30.7176 5.68675 30.7176 5.68675 30.7176C9.11684 27.6027 11.3133 24.1485 11.9752 20.9718C12.0655 20.941 12.1859 20.9102 12.2761 20.8793C12.7275 22.3597 13.5399 23.7167 14.6531 24.7036C15.9469 25.8756 17.0301 25.3204 17.3611 25.1045C18.2036 24.5494 18.5646 23.3774 18.2337 22.1746L18.2637 22.298C17.7823 19.9849 16.6691 18.4429 15.1045 17.7952C15.1045 17.7027 15.1345 17.3943 15.285 17.0859C15.4956 16.6232 15.8868 16.0681 16.0673 15.8214C17.8726 15.7597 19.7983 15.1737 21.1222 13.6933C21.5434 13.2307 21.754 12.6756 21.754 12.1513C21.754 11.812 21.6938 11.5653 21.5735 11.2877ZM20.4903 12.6447C19.2567 14.0017 17.3912 14.4952 15.7062 14.4335C15.4354 14.7419 14.6832 15.6055 14.3522 16.5307C14.0514 17.3634 14.1717 18.2578 14.1717 18.3195C14.6832 18.412 15.646 18.7821 16.308 19.6765C16.9699 20.6017 17.1806 21.3728 17.3912 22.3905C17.6018 23.3774 17.0903 23.8401 16.9399 23.9326C16.6991 24.0868 16.1876 24.241 15.4956 23.6242C14.3222 22.5756 13.5399 20.9718 13.2089 19.3681C13.1186 19.3681 12.7876 19.3681 12.4868 19.4606C12.0053 19.584 11.4637 19.7999 11.1929 19.9232C10.8319 22.3288 9.20711 25.6905 5.8372 28.9905C4.60357 30.3475 3.94162 30.3167 3.55047 30.07C3.24959 29.8849 3.12923 29.5765 3.09914 29.1447C3.06906 28.6513 3.49029 27.3251 4.39295 25.413C5.92746 22.1438 8.39472 20.0774 10.2602 19.1214C10.2602 18.9055 10.2903 18.7204 10.2903 18.5045C10.2903 18.0419 10.2301 17.5793 10.1399 17.1167C9.95932 16.4382 9.68853 15.8522 9.35755 15.3279C7.131 16.0064 4.84428 15.4513 3.15932 13.6933C2.9487 13.5083 2.61773 12.984 2.70799 12.3672C2.76817 12.1204 2.9487 11.6578 3.55047 11.5036C3.88144 11.4111 4.33277 11.4111 4.99472 11.4419C7.4018 11.5653 8.90622 12.9531 9.7487 14.0326C10.1399 13.8475 10.9522 13.3232 11.4337 12.9223C11.6744 12.7064 11.7947 12.5214 11.8248 12.4597C11.554 11.9354 11.4637 11.4111 11.4637 10.7943C11.4637 10.1158 11.5841 9.19053 11.8549 8.51202C12.0956 7.8952 12.4868 7.61763 12.7876 7.61763C12.9682 7.61763 13.3593 7.83352 13.5699 8.45034C13.7505 8.97464 13.8106 9.40641 13.8106 10.0541C13.8106 10.7943 13.6301 11.6578 13.1487 12.5214C13.239 12.6139 13.3593 12.7064 13.4797 12.7681C13.931 13.0457 14.6531 13.2616 15.3452 13.3232C16.6089 12.0896 18.1133 11.2877 19.8584 11.041C20.4301 10.9793 20.6708 11.2569 20.7611 11.4728C20.9717 11.9045 20.7611 12.3363 20.4903 12.6447Z" fill="white"/>
<path d="M6.22829 12.7989C5.59643 12.6139 4.60351 12.4905 4.06191 12.5522C3.64068 12.6139 3.88138 12.9531 4.12209 13.169C4.51324 13.5391 5.1451 14.0017 5.89731 14.2484C6.95041 14.5877 7.94333 14.526 8.63537 14.3718C8.18404 13.8475 7.34156 13.1073 6.22829 12.7989Z" fill="white"/>
<path d="M12.3665 13.5083C12.3063 13.57 12.0355 13.8784 11.5842 14.1868C11.0727 14.5261 10.3506 14.8962 9.9895 15.0504C10.1399 15.2971 10.6214 16.0681 10.832 16.8391C11.1028 17.7644 11.0727 18.6588 11.0727 18.6588C11.4337 18.5354 11.7647 18.4429 12.1258 18.3504H12.1559H12.186C12.4568 18.2887 12.7276 18.2887 13.0284 18.2578C13.0284 18.1962 12.9382 17.2092 13.2691 16.284C13.57 15.4204 14.2621 14.6494 14.4727 14.3719C14.1116 14.3102 13.4798 14.1251 13.0284 13.9092C12.6674 13.755 12.4267 13.57 12.3665 13.5083Z" fill="white"/>
<path d="M19.9788 11.6581C19.9788 11.6581 19.9487 11.6581 19.9788 11.6581C19.8284 11.8123 19.6478 11.9973 19.4974 12.1515C19.1363 12.4599 18.7452 12.6758 18.3239 12.8609C17.6921 13.1384 17 13.2618 16.308 13.2926C16.6691 12.9842 17.0903 12.7067 17.5115 12.4599C17.9027 12.2132 18.354 12.059 18.8054 11.9048C19.016 11.8431 19.2567 11.7814 19.4974 11.7197C19.6177 11.6889 19.9186 11.6581 19.9788 11.6272C19.9788 11.5964 19.9788 11.6272 19.9788 11.6581ZM13.6 16.0683C13.57 16.1609 13.4797 16.4693 13.4797 16.5618C13.3894 17.1169 13.3593 17.6412 13.4195 18.1347C12.8779 18.1347 12.3062 18.2272 11.7947 18.4431C11.5841 18.5048 11.3735 18.5973 11.1629 18.6898C11.1629 18.5973 11.1629 18.5048 11.1629 18.4123C11.1629 17.7029 11.1027 17.0553 10.9222 16.4384C10.7416 15.8525 10.5009 15.2973 10.2301 14.8039C10.17 14.7113 10.1098 14.588 10.0496 14.4954C10.6815 14.2487 11.3133 13.9095 11.9151 13.4468C12.1558 13.231 12.3965 13.0151 12.6071 12.7375C12.7275 12.8609 12.8478 12.9534 12.9682 13.0459C13.57 13.4777 14.262 13.6936 14.954 13.7861C14.3523 14.4646 13.8708 15.2356 13.6 16.0683ZM12.4266 9.53002C12.4567 9.31413 12.4868 9.15993 12.5469 8.94404C12.577 8.72815 12.6974 8.3889 12.7275 8.32722C12.7877 8.23469 12.7877 8.26554 12.8177 8.32722C12.8779 8.45058 12.908 8.66647 12.9682 8.85152C13.0584 9.34498 13.0584 9.77675 13.0584 10.0852C12.9983 10.6711 12.8478 11.2263 12.577 11.6889C12.4266 11.3805 12.3664 11.0104 12.3664 10.6403C12.3363 10.2394 12.3664 9.86927 12.4266 9.53002ZM16.1877 20.6328C16.4885 21.3422 16.5487 21.7739 16.5487 21.7739C16.5487 21.7739 16.5788 21.8665 16.639 22.0824C16.6691 22.1749 16.6691 22.3291 16.6691 22.4833C16.6691 22.6067 16.639 22.8842 16.3983 22.7917C16.2478 22.73 16.0673 22.5758 15.8868 22.3599C15.5257 21.9898 15.1646 21.4964 14.8337 20.9104C14.5027 20.2936 14.2319 19.5842 14.0815 18.7824C15.285 19.0291 15.9169 19.9852 16.1877 20.6328ZM8.15402 24.673C7.01066 26.4001 4.36287 29.145 4.0319 28.9908C3.88146 28.8982 4.15225 27.9113 4.57349 26.8627C5.02482 25.8141 5.62659 24.673 5.98765 24.087C7.01066 22.4525 8.42482 20.8179 10.4107 19.7384C10.3505 19.9235 9.98942 22.0207 8.15402 24.673ZM8.93633 14.3412C8.12394 14.588 6.83013 14.773 5.29562 14.1562C3.67084 13.5085 3.03898 12.5216 3.49031 11.9665C3.67084 11.7506 4.15225 11.7506 4.3027 11.7506C4.63367 11.7506 4.93455 11.7506 5.23544 11.8123C6.16818 11.9356 7.04075 12.2749 7.82305 12.83C8.36464 13.2001 8.81597 13.6936 9.23721 14.2487C9.11686 14.2796 9.02659 14.3104 8.93633 14.3412ZM20.4903 11.1338C20.37 11.0104 20.2496 11.0104 20.1593 10.9796C19.9788 10.9487 19.4673 11.0412 19.3469 11.0721C19.1062 11.1338 18.8354 11.1954 18.5947 11.2571C18.1133 11.4113 17.6319 11.6272 17.2107 11.8739C16.5487 12.244 15.9469 12.7067 15.4354 13.231C14.6231 13.1693 13.8407 12.9534 13.2691 12.5525C13.1186 12.4599 12.9983 12.3366 12.908 12.244C13.2992 11.6581 13.5399 10.9487 13.6 10.116C13.6301 9.74591 13.6301 9.25245 13.5098 8.69731C13.4797 8.54311 13.4496 8.41974 13.4195 8.26554C13.3593 8.11133 13.3292 7.92628 13.1186 7.74124C13.0284 7.64871 12.8177 7.55619 12.6673 7.61787C12.4868 7.64871 12.3965 7.74124 12.3062 7.83376C12.1558 8.01881 12.0956 8.20385 12.0354 8.3889C11.8549 9.06741 11.7045 9.80759 11.7346 10.6403C11.7346 11.0721 11.8248 11.5039 12.0054 11.9356C12.0655 12.0282 12.0956 12.1515 12.1558 12.244C11.9452 12.5216 11.7346 12.7375 11.4938 12.9534C10.9222 13.416 10.3204 13.7861 9.68854 14.0328C9.20712 13.3852 8.63544 12.8609 8.00358 12.4291C7.1611 11.8739 6.19827 11.5655 5.20535 11.5347C4.90447 11.5039 4.00181 11.4422 3.5204 11.6889C3.36995 11.7814 3.15933 11.9973 3.18942 12.3366C3.21951 12.645 3.46022 13.0459 3.7611 13.2926C4.09208 13.601 4.57349 13.9403 4.96464 14.1562C5.65668 14.5263 6.28854 14.7113 6.76995 14.8039C7.49208 14.9581 8.63544 14.8347 9.02659 14.7113C9.17703 14.6805 9.32748 14.6496 9.44783 14.588C9.53809 14.7113 9.59827 14.8655 9.68854 14.9889C9.92925 15.4515 10.1399 15.9758 10.3204 16.531C10.4708 17.0553 10.531 17.6721 10.531 18.3197C10.531 18.5048 10.531 18.6898 10.5009 18.9057C10.1399 19.0908 9.7788 19.3067 9.41774 19.5225C7.88323 20.5095 6.52925 21.9898 5.44606 23.6861C4.90447 24.5496 4.45314 25.444 4.06199 26.4001C3.67084 27.3253 3.33986 28.2197 3.33986 28.7749C3.33986 29.2992 3.64075 29.4842 3.7611 29.5151C3.94163 29.5767 4.24252 29.5767 4.51332 29.4225C4.75402 29.2992 5.32571 28.7749 6.07792 27.973C6.86022 27.1711 7.67261 26.2151 8.12394 25.5982C9.17703 24.1796 9.98942 22.7609 10.4708 21.4655C10.7717 20.6637 10.9523 19.9235 11.0425 19.2758C11.885 18.8749 12.6974 18.659 13.4496 18.659C13.6 19.5842 13.931 20.4478 14.2921 21.1571C14.6231 21.8048 15.0443 22.3291 15.4354 22.7609C15.6461 22.9459 15.8266 23.1618 16.1275 23.316C16.2779 23.3777 16.4584 23.4085 16.639 23.3777C16.8195 23.3468 16.97 23.1618 17.0602 23.0384C17.2708 22.6992 17.2107 22.144 17.1505 21.8973C17.0903 21.7123 17.0903 21.5889 17.0903 21.5889C17.0903 21.5889 17.0301 21.1263 16.6992 20.3553C16.5487 19.9852 16.2779 19.4917 15.8567 19.0599C15.4354 18.6282 14.8036 18.2581 14.0514 18.1347C14.0213 18.1347 13.9912 18.1347 13.9611 18.1347C13.9009 17.6412 13.9611 16.8702 14.0213 16.6543C14.0815 16.3768 14.1115 16.2842 14.1416 16.1917C14.4425 15.359 14.954 14.5571 15.616 13.8478C16.5788 13.9095 17.5717 13.7553 18.4744 13.3852C18.9558 13.2001 19.4071 12.9225 19.7983 12.5833C20.0089 12.3982 20.1894 12.244 20.37 11.9973C20.4602 11.8739 20.5505 11.7506 20.5806 11.5039C20.6408 11.4422 20.6107 11.2263 20.4903 11.1338ZM47.5399 19.7076C46.577 19.1833 46.4567 18.9674 46.4567 18.5973C46.4567 18.5973 46.4266 17.9188 47.5399 17.9188H48.593C49.2248 17.9188 49.2549 17.4562 49.2549 17.3637C49.2549 17.0861 48.9841 16.8394 48.6832 16.8394H47.239C46.6673 16.8394 46.0655 17.0553 45.6443 17.4253C45.2531 17.7646 45.0425 18.2581 45.0425 18.844C45.0425 19.3683 45.193 19.8001 45.554 20.1702C45.9151 20.5711 47.0284 21.1571 47.0284 21.1571C48.0815 21.7431 48.1717 21.959 48.1717 22.3599C48.1717 22.7917 47.7806 23.316 46.9381 23.316H45.7947C45.3735 23.316 45.1629 23.5936 45.1629 23.8711C45.1629 24.1796 45.4337 24.3954 45.7646 24.3954H47.1186C48.6531 24.3954 49.6762 23.501 49.6762 22.1749C49.6762 21.6197 49.4956 21.1571 49.1346 20.7562C48.8036 20.4169 48.7133 20.3553 47.5399 19.7076ZM57.8903 20.0777H56.3257C56.0549 20.0777 55.8443 20.2936 55.8443 20.5711C55.8443 20.8487 56.0549 21.0646 56.3257 21.0646H57.0779V23.501H56.4461C54.6107 23.501 54.4903 21.5581 54.4903 21.4964V19.9543C54.4903 19.8926 54.6107 17.9496 56.4461 17.9496H57.4992C57.7399 17.9496 57.9505 17.7338 57.9505 17.487C57.9505 17.2403 57.7399 17.0244 57.4992 17.0244H56.2655C55.1222 17.0244 52.9859 18.3814 52.9859 20.2319V21.188C52.9859 23.0384 55.1222 24.3954 56.2655 24.3954H58.0107C58.2514 24.3954 58.462 24.1796 58.462 23.9328V20.6637C58.462 20.3244 58.1912 20.0777 57.8903 20.0777ZM42.9062 17.0553C42.6054 17.0553 42.3947 17.2711 42.3947 17.5796V23.501C42.3947 23.9945 42.816 24.3954 43.3275 24.4263H43.3576C43.6284 24.4263 43.8691 24.1796 43.8691 23.902V17.9805C43.839 17.487 43.4478 17.0553 42.9062 17.0553ZM51.0903 17.0553C50.7894 17.0553 50.5788 17.2711 50.5788 17.5796V23.501C50.5788 23.9945 51 24.3954 51.5115 24.4263H51.5416C51.8124 24.4263 52.0531 24.1796 52.0531 23.902V17.9805C52.0231 17.487 51.6018 17.0553 51.0903 17.0553ZM23.2585 17.9805H24.3115C24.5523 17.9805 24.7629 17.7646 24.7629 17.5179C24.7629 17.2711 24.5523 17.0553 24.3115 17.0553H23.0779C21.9346 17.0553 19.7983 18.4123 19.7983 20.2627V21.2188C19.7983 23.0693 21.9346 24.4263 23.0478 24.4263H24.2815C24.5222 24.4263 24.7328 24.2104 24.7328 23.9637C24.7328 23.7169 24.5222 23.501 24.2815 23.501H23.2284C21.393 23.501 21.2726 21.5581 21.2726 21.4964V19.9543C21.3027 19.9235 21.393 17.9805 23.2585 17.9805ZM64.2089 17.0553C64.0885 17.0553 63.9682 17.0861 63.8779 17.1786C63.7576 17.2711 63.6974 17.4562 63.6974 17.6104V21.6506L61.4708 17.7954C61.4708 17.7954 61.4708 17.7954 61.4708 17.7646C61.0797 17.1478 60.5682 17.0861 60.1469 17.0861C59.8461 17.0861 59.6354 17.302 59.6354 17.6104V23.7169C59.6354 24.1179 59.9363 24.4571 60.2673 24.4571C60.508 24.4571 60.7487 24.2721 60.7487 23.902V19.3067L63.2761 23.7478C63.2761 23.7478 63.2761 23.7786 63.3062 23.7786C63.5169 24.0562 63.8177 24.3954 64.2992 24.3954C64.4195 24.3954 64.6 24.3954 64.7204 24.2721C64.8708 24.1487 64.8708 23.9328 64.8708 23.8711V17.7954C64.8708 17.3945 64.6301 17.1169 64.2089 17.0553ZM27.2301 18.073H29.4567C29.7275 18.073 29.9381 17.8571 29.9381 17.5796C29.9381 17.302 29.7275 17.0861 29.4567 17.0861H26.3275C25.9664 17.0861 25.6956 17.3637 25.6956 17.7338V23.7478C25.6956 24.1179 25.9664 24.3954 26.3275 24.3954H29.4266C29.6974 24.3954 29.908 24.1796 29.908 23.902C29.908 23.6244 29.6974 23.4085 29.4266 23.4085H27.2C27.17 23.4085 27.1399 23.3777 27.1399 23.3777V21.1571C27.1399 21.1263 27.17 21.0954 27.2 21.0954H29.0655C29.3363 21.0954 29.5469 20.8796 29.5469 20.602C29.5469 20.3244 29.3363 20.1085 29.0655 20.1085H27.2C27.17 20.1085 27.1399 20.0777 27.1399 20.0468V18.1347C27.17 18.1039 27.2 18.073 27.2301 18.073ZM34.1204 19.0599C34.1204 19.7076 33.7292 20.0468 32.977 20.0468H32.5558V18.0422H32.977C33.7593 18.073 34.1204 18.4123 34.1204 19.0599ZM34.1806 21.0029L34.331 20.9721C35.0531 20.8179 35.5947 20.1394 35.5947 19.3375C35.5947 17.8263 34.5416 17.0861 33.3682 17.0861H31.7133C31.3523 17.0861 31.0815 17.3637 31.0815 17.7338V23.501C31.0815 23.9945 31.5027 24.3954 32.0142 24.4263H32.0443C32.3151 24.4263 32.5558 24.1796 32.5558 23.902V21.1571C32.5558 21.1571 32.5558 21.1263 32.5859 21.1263C32.5859 21.1263 32.5859 21.1263 32.616 21.1263L34.2107 23.7169C34.3611 23.9328 34.5416 24.1796 34.7823 24.3029C34.993 24.3954 35.2337 24.4263 35.354 24.4263H35.4744C35.7151 24.4263 35.8956 24.2104 35.8956 23.9637C35.8956 23.8711 35.8655 23.7786 35.8054 23.7169C35.8054 23.6861 34.6018 21.6814 34.1806 21.0029ZM41.0708 17.0553H36.5576C36.2868 17.0553 36.0761 17.2711 36.0761 17.5487C36.0761 17.8263 36.2868 18.0422 36.5576 18.0422H38.0921V23.4702C38.0921 23.9637 38.5133 24.3646 39.0248 24.3954H39.0549C39.3257 24.3954 39.5664 24.1487 39.5664 23.8711V18.073H41.1009C41.3717 18.073 41.5823 17.8571 41.5823 17.5796C41.5523 17.2711 41.3416 17.0553 41.0708 17.0553Z" fill="white"/>
</g>
<defs>
<clipPath id="clip0">
<rect width="68" height="33" fill="white"/>
</clipPath>
</defs>
</svg>
